<?xml version="1.0" standalone="no"?>
<!DOCTYPE svg PUBLIC "-//W3C//DTD SVG 1.1//EN" "http://www.w3.org/Graphics/SVG/1.1/DTD/svg11.dtd" >
<svg xmlns="http://www.w3.org/2000/svg">
<metadata>
This is a custom SVG webfont generated by Font Squirrel.
Copyright   : Classic Robot  Neale Davidson 2011 All Rights Reserved
</metadata>
<defs>
<font id="ClassicRobotRegular" horiz-adv-x="1200" >
<font-face units-per-em="2048" ascent="1638" descent="-410" />
<missing-glyph horiz-adv-x="800" />
<glyph unicode=" "  horiz-adv-x="800" />
<glyph unicode="&#x09;" horiz-adv-x="800" />
<glyph unicode="&#xa0;" horiz-adv-x="800" />
<glyph unicode="!" horiz-adv-x="400" d="M0 100q0 100 100 100t100 -100t-100 -100t-100 100zM0 400l1 600v2q0 98 100 98t100 -100v-600q-1 -100 -100 -101q-100 0 -101 101z" />
<glyph unicode="&#x22;" horiz-adv-x="850" d="M0 1000l200 200q100 0 100 -150l-199 -200q-100 0 -101 150zM350 1001l199 199q100 0 101 -150l-200 -200q-100 0 -100 151z" />
<glyph unicode="#" horiz-adv-x="1100" d="M0 400q0 100 100 100h100v100h-100q-100 0 -100 101q1 99 100 99h100v100q0 100 100 100t101 -100l-1 -100h100v99q1 100 98 100h2q100 0 100 -99v-100h102q98 0 98 -98q0 -101 -100 -102h-100v-100h100q100 0 100 -100t-100 -100h-100v-99q0 -99 -100 -99h-2 q-98 0 -98 99v99h-100v-98q0 -100 -100 -100t-100 100v98h-100q-100 0 -100 100zM400 500h100v100h-100v-100z" />
<glyph unicode="$" horiz-adv-x="1400" d="M0 250v51q0 99 100 100q100 0 100 -101q0 -50 50 -50h250v200h-250q-250 0 -250 250v100q0 249 250 250h250q0 100 100 100t100 -100h300q200 -2 200 -202v-50q0 -100 -101 -100q-100 0 -100 100v2q0 49 -49 49h-250v-199h250q250 0 250 -250v-99q0 -250 -248 -250h-252 v-2q0 -99 -100 -99t-100 100h-300q-200 1 -200 200zM200 750q0 -100 100 -100h200v199h-202q-98 0 -98 -99zM700 250h200q100 0 100 99v2q0 99 -99 99h-201v-200z" />
<glyph unicode="%" horiz-adv-x="1299" d="M0 150l999 950q100 0 100 -150l-998 -950q-100 0 -101 150zM0 800v150q0 200 200 200h100q200 0 200 -200v-100q0 -200 -200 -200h-100q-200 0 -200 150zM200 900q0 -50 50 -50t50 50t-50 50t-50 -50zM601 149v153q0 198 199 198h100q200 0 200 -200v-100 q0 -200 -200 -200h-100q-199 0 -199 149zM800 250q0 -50 50 -50t50 50t-50 50t-50 -50z" />
<glyph unicode="&#x26;" horiz-adv-x="1400" d="M0 300v50q0 150 150 200q-99 50 -99 197v53q1 300 350 300h198q350 0 350 -298v-2l1 -50q0 -100 100 -100t100 -100t-100 -100q-50 0 -50 -100v-50q0 -100 50 -100q100 0 100 -100t-100 -100h-700q-349 0 -350 300zM200 299q0 -99 200 -99l200 -1q199 0 200 100l-1 50 q0 101 -249 101h-100q-250 0 -250 -100v-51zM251 750q0 -100 250 -100h5q243 0 243 99v50q0 101 -199 101h-99q-200 0 -200 -100v-50z" />
<glyph unicode="'" horiz-adv-x="400" d="M0 1000l200 200q100 0 100 -150l-199 -200q-100 0 -101 150z" />
<glyph unicode="(" horiz-adv-x="800" d="M1 500v103q0 697 449 697h50q99 0 100 -100q0 -100 -100 -100q-300 0 -300 -500v-100q1 -500 300 -500q100 0 100 -99q0 -101 -101 -101h-49q-449 0 -449 700z" />
<glyph unicode=")" horiz-adv-x="800" d="M0 -99q0 99 100 99q300 0 300 500v100q0 500 -300 500q-100 0 -100 100q1 100 101 100h49q450 0 450 -700v-100q0 -700 -450 -700h-49q-101 0 -101 101z" />
<glyph unicode="*" horiz-adv-x="1000" d="M0 700q0 99 100 100h91l-91 100l100 100l100 -110v111q0 98 100 99q100 -1 100 -100v-110l100 110l100 -100l-91 -100h91q100 0 100 -100t-100 -100l-136 -1l136 -149l-100 -100l-100 110v-60q0 -100 -100 -100t-100 100v60l-100 -110l-100 100l136 150h-138 q-98 0 -98 100z" />
<glyph unicode="+" d="M0 550q1 100 100 100h300l1 300v2q0 98 100 98q99 0 100 -100l-1 -300l300 1q100 -1 100 -100v-2q0 -99 -100 -99h-299l-1 -300q0 -100 -100 -100q-99 0 -99 100l-1 300h-302q-98 0 -98 100z" />
<glyph unicode="," horiz-adv-x="400" d="M0 50l200 200q100 0 100 -150l-199 -200q-100 0 -101 150z" />
<glyph unicode="-" d="M0 550q1 100 100 100l800 1q100 -1 100 -100v-2q0 -99 -100 -99h-802q-98 0 -98 100z" />
<glyph unicode="." horiz-adv-x="400" d="M1 100v2q0 98 100 98t100 -99q0 -101 -100 -101t-100 100z" />
<glyph unicode="/" horiz-adv-x="1299" d="M0 150l999 950q100 0 100 -150l-998 -950q-100 0 -101 150z" />
<glyph unicode="0" horiz-adv-x="1400" d="M0 200v700q0 200 200 200h800q200 0 200 -198v-702q0 -200 -200 -200h-799q-200 0 -201 200zM201 298q0 -98 99 -98h602q98 0 99 100l-1 500v2q0 98 -100 98h-600q-99 0 -99 -98v-504z" />
<glyph unicode="1" horiz-adv-x="500" d="M0 1000q0 100 100 100h200l-1 -1000v-2q0 -98 -98 -98q-100 0 -101 100v800q-100 0 -100 100z" />
<glyph unicode="2" horiz-adv-x="1500" d="M0 800q0 300 650 300t650 -300v-100l-900 -500h652q47 0 48 49q0 101 99 101q101 -1 101 -100v-50q-1 -200 -200 -200h-999q-100 0 -100 100v100l1099 600q0 100 -450 100t-450 -100v-4q0 -96 -99 -97q-100 1 -101 101z" />
<glyph unicode="3" horiz-adv-x="1500" d="M0 300q0 100 101 100q99 0 99 -98v-2q0 -100 450 -100t450 100v50q0 100 -100 100h-150q-99 0 -99 100q0 101 100 101l149 -1q100 0 100 100v50q0 100 -450 100t-450 -100v-4q0 -96 -99 -97q-100 1 -101 101q0 300 650 300t650 -300v-100q0 -100 -150 -150 q150 -26 150 -150v-100q0 -300 -650 -300q-649 0 -650 300z" />
<glyph unicode="4" horiz-adv-x="1400" d="M0 600l800 500h250v-550l50 -1q100 0 100 -100q0 -99 -100 -100l-50 1v-251q0 -99 -100 -99t-100 100v250h-800zM300 550h550v350z" />
<glyph unicode="5" horiz-adv-x="1400" d="M0 200v50q0 100 100 100t100 -100q0 -50 50 -50h550q200 0 200 99v1l1 50q-1 100 -201 100h-600q-200 0 -200 200v350q1 100 100 100h800q100 0 100 -100v-2q0 -98 -100 -98h-649q-51 0 -51 -50v-150q0 -50 50 -50h600q350 0 350 -300v-50q0 -300 -350 -300h-650 q-200 0 -200 200z" />
<glyph unicode="6" horiz-adv-x="1400" d="M0 300v550q1 250 250 250h650q100 0 100 -100v-2q0 -98 -100 -98h-600q-100 0 -100 -100v-100q0 -50 50 -50h600q350 0 350 -298v-2l1 -50q0 -300 -350 -300h-501q-348 0 -350 300zM200 300q1 -100 200 -100h401q200 0 200 99v51q0 100 -201 100h-549q-51 0 -51 -50v-100 z" />
<glyph unicode="7" horiz-adv-x="1400" d="M0 850v50q0 200 300 200h800q100 0 100 -99v-101l-650 -900q-150 0 -151 100l551 800h-650q-100 0 -100 -50v-2q0 -98 -99 -98q-100 0 -101 100z" />
<glyph unicode="8" horiz-adv-x="1400" d="M0 300v50q0 150 200 200q-99 50 -99 197v53q1 300 350 300h299q351 0 351 -300v-50q0 -151 -100 -200q199 -50 199 -200l1 -50q0 -300 -350 -300h-501q-349 0 -350 300zM200 300q1 -100 200 -100h401q200 0 200 99l-1 51v1q0 99 -249 99h-301q-249 0 -249 -99v-1z M301 750q0 -100 250 -100h105q244 0 244 99v50q0 101 -199 101h-200q-200 0 -200 -100v-50z" />
<glyph unicode="9" horiz-adv-x="1400" d="M1 747v54q0 298 349 299h501q349 -1 349 -300l1 -551q0 -249 -249 -249h-651q-100 0 -100 99q0 100 101 100h599q100 1 100 100l1 100q-1 50 -49 50h-601q-351 1 -351 298zM200 800l1 -51q0 -100 200 -100h550q50 0 50 50v101q0 99 -200 99h-401q-199 0 -200 -99z" />
<glyph unicode=":" horiz-adv-x="400" d="M0 551q0 99 100 100q100 0 100 -100q0 -101 -99 -101q-100 0 -101 101zM1 100v2q0 98 100 98t101 -99q-1 -101 -100 -101q-100 0 -101 100z" />
<glyph unicode=";" horiz-adv-x="400" d="M0 50l200 200q100 0 100 -150l-199 -200q-100 0 -101 150zM0 551q0 99 100 100q100 0 101 -100q-1 -101 -100 -101q-100 0 -101 101z" />
<glyph unicode="&#x37e;" horiz-adv-x="400" d="M0 50l200 200q100 0 100 -150l-199 -200q-100 0 -101 150zM0 551q0 99 100 100q100 0 101 -100q-1 -101 -100 -101q-100 0 -101 101z" />
<glyph unicode="&#x3c;" d="M0 550q0 100 100 150l800 251q100 0 100 -151l-750 -250l750 -250q0 -150 -100 -150l-800 250q-100 50 -100 150z" />
<glyph unicode="=" d="M0 350q0 100 100 100h800q100 0 100 -100t-100 -100h-800q-100 0 -100 100zM0 750q1 100 100 101h800q100 0 100 -99q0 -101 -100 -102h-800q-100 0 -100 100z" />
<glyph unicode="&#x3e;" d="M0 300l750 250l-750 250q0 151 100 151l800 -251q100 -50 100 -150t-100 -150l-800 -250q-100 0 -100 150z" />
<glyph unicode="?" horiz-adv-x="1300" d="M0 400v50q0 200 201 200h599q100 0 100 98v54q0 98 -100 98h-550q-49 0 -49 -50q0 -100 -100 -100t-100 98v2l-1 50q1 200 201 200h649q250 0 250 -248v-154q0 -248 -250 -248h-600q-50 0 -50 -50q0 -100 -100 -100t-100 100zM1 100v2q0 98 100 98t100 -99 q0 -101 -99 -101q-101 0 -101 100z" />
<glyph unicode="@" horiz-adv-x="1240" d="M0 160v560q1 160 160 160h721q159 0 159 -160v-200q0 -160 -160 -160h-121q-79 0 -80 79q0 81 81 81h80q40 0 40 40v80q0 80 -40 80h-600q-80 0 -80 -80v-400q0 -80 80 -80l601 -1q39 0 39 41q0 80 80 80q80 -1 80 -78v-2l1 -40q-1 -160 -161 -160h-720q-160 0 -160 160z " />
<glyph unicode="A" horiz-adv-x="1500" d="M0 99l550 1001h200l550 -1000q0 -100 -150 -100l-111 200h-778l-111 -200q-150 0 -150 99zM372 400h556l-278 500z" />
<glyph unicode="B" horiz-adv-x="1600" d="M0 100l1 900q0 100 99 100h849q351 0 351 -300v-50q0 -150 -100 -200q200 -50 200 -200v-50q0 -300 -350 -300h-950q-99 0 -100 100zM200 200h800q200 0 200 100v50q0 100 -250 100h-750v-250zM200 649l650 1h5q245 0 245 100l-1 50v1q0 99 -199 100l-700 -1v-251z" />
<glyph unicode="C" horiz-adv-x="1500" d="M0 200v700q0 200 200 200h900q200 0 201 -200l-1 -50v-2q0 -97 -100 -98q-100 0 -100 100q0 51 -49 51l-751 -1q-100 0 -100 -100v-500q0 -100 100 -100l751 1h2q47 0 48 49v2q0 99 99 99q100 -1 100 -101v-49q0 -200 -197 -200h-2l-901 -1q-199 0 -200 200z" />
<glyph unicode="D" horiz-adv-x="1600" d="M0 100l1 900q0 100 99 100h750q550 0 550 -548v-4q0 -548 -550 -548h-750q-99 0 -100 100zM200 200h601q399 0 399 350t-399 350h-601v-700z" />
<glyph unicode="E" horiz-adv-x="1300" d="M1 100v902q0 98 100 98h799q200 0 200 -200v-50q0 -100 -100 -100t-100 100q0 50 -50 50h-650v-250h600q99 0 99 -98v-4q0 -98 -99 -98h-600l1 -250h649q50 0 50 50q0 100 100 100t100 -100v-50q0 -200 -200 -200h-799q-100 0 -100 100z" />
<glyph unicode="F" horiz-adv-x="1300" d="M0 100v900q0 100 100 100h800q200 0 200 -200v-50q0 -100 -101 -100q-100 0 -100 100v2q0 48 -49 48h-651l1 -250h600q99 0 99 -100v-2q0 -98 -99 -98h-600l-1 -350v-2q0 -98 -98 -98q-100 0 -101 100z" />
<glyph unicode="G" horiz-adv-x="1500" d="M0 200v700q0 200 200 200h900q200 0 201 -200l-1 -50v-2q0 -97 -100 -98q-100 0 -100 100q0 51 -49 51l-751 -1q-100 0 -100 -100v-500q0 -100 100 -100h750q50 0 50 100v100q0 50 -50 50h-100q-101 0 -101 101q1 99 100 99h151q200 0 200 -200v-249q0 -200 -197 -200h-2 l-901 -1q-199 0 -200 200z" />
<glyph unicode="H" horiz-adv-x="1600" d="M1 100v902q0 98 100 98t100 -100l-1 -350h1000v350q0 100 100 100t100 -100v-900q0 -100 -100 -100t-100 100v350h-999v-349q0 -101 -100 -101t-100 100z" />
<glyph unicode="I" horiz-adv-x="400" d="M1 100v902q0 98 100 98t100 -100v-899q0 -101 -100 -101t-100 100z" />
<glyph unicode="J" horiz-adv-x="1300" d="M0 300v103q0 97 97 97h4q98 0 98 -100q1 -200 200 -200h500v800q0 100 100 100t100 -100v-900q0 -100 -100 -100h-700q-299 0 -299 300z" />
<glyph unicode="K" horiz-adv-x="1500" d="M1 100v902q0 98 100 98q99 0 99 -98v-352l999 450h1q99 0 99 -150l-899 -400l899 -400v-3q0 -146 -99 -147l-999 450v-349q0 -101 -100 -101t-100 100z" />
<glyph unicode="L" horiz-adv-x="1300" d="M1 100v902q0 98 100 98t100 -100v-800h800q100 0 100 -100t-100 -100h-900q-100 0 -100 100z" />
<glyph unicode="M" horiz-adv-x="1700" d="M1 100v902q0 98 100 98h99l550 -600l550 600l100 -1q100 0 101 -100v-899q0 -100 -100 -100q-101 0 -101 100v700l-550 -600l-550 600l1 -699q0 -101 -100 -101t-100 100z" />
<glyph unicode="N" horiz-adv-x="1600" d="M1 100v902q0 98 100 98h99l1000 -850v750q0 100 100 100t100 -100v-900q0 -100 -100 -100h-100l-1000 850l1 -749q0 -101 -100 -101t-100 100z" />
<glyph unicode="O" horiz-adv-x="1600" d="M0 200v700q0 200 200 200h1000q200 0 200 -198v-702q0 -200 -200 -200h-999q-200 0 -201 200zM201 298q0 -98 99 -98h800q100 0 101 100l-1 500v2q0 98 -100 98h-800q-99 0 -99 -98v-504z" />
<glyph unicode="P" horiz-adv-x="1600" d="M0 100l1 900q0 100 99 100l950 1q350 -1 350 -299v-52q0 -300 -350 -300h-850v-350q0 -100 -100 -100q-99 0 -100 100zM200 649l800 1h4q196 0 196 100v50q0 100 -199 101l-801 -1v-251z" />
<glyph unicode="Q" horiz-adv-x="1600" d="M0 200v700q0 200 200 200h1000q200 0 200 -198v-702q0 -75 -28 -122l128 -128q0 -150 -100 -150l-200 200h-999q-200 0 -201 200zM201 298q0 -98 99 -98h700l-200 200q0 150 100 150l294 -294q7 19 7 44l-1 500v2q0 98 -100 98h-800q-99 0 -99 -98v-504z" />
<glyph unicode="R" horiz-adv-x="1600" d="M0 100l1 900q0 100 99 100h950q350 0 350 -298v-52q0 -271 -285 -297l235 -353q17 -33 17 -56q0 -44 -67 -44h-50q-50 0 -100 50l-267 400h-683v-350q0 -100 -100 -100q-99 0 -100 100zM200 650h804q196 0 196 100v50q0 100 -200 100h-800v-250z" />
<glyph unicode="S" horiz-adv-x="1500" d="M0 200v50q0 100 101 100q99 0 99 -100q0 -50 50 -50h750q100 0 100 98v52q0 100 -100 100h-750q-250 0 -250 250l1 150v2q0 248 249 248l850 -1q200 0 200 -200v-50q0 -100 -100 -100t-100 98v2q0 50 -50 50l-749 1q-101 0 -101 -100v-50q0 -100 100 -100h750 q250 -1 250 -250l1 -150q-1 -250 -251 -250h-850q-200 0 -200 200z" />
<glyph unicode="T" horiz-adv-x="1600" d="M0 1000q1 100 100 100h1201q99 0 100 -100q-1 -100 -98 -100h-503v-802q0 -98 -99 -98q-100 0 -100 100v800h-501q-100 0 -100 100z" />
<glyph unicode="U" horiz-adv-x="1500" d="M0 200v800q0 100 100 100t100 -100v-700q0 -100 100 -100h700q100 0 100 100v700q0 100 99 100q101 0 101 -100v-799q0 -200 -197 -200h-2l-901 -1q-199 0 -200 200z" />
<glyph unicode="V" horiz-adv-x="1500" d="M0 1000q0 100 150 100l500 -900l500 900q150 0 150 -100l-550 -1000h-200z" />
<glyph unicode="W" horiz-adv-x="2100" d="M1 1000q1 100 101 100q49 0 99 -101l300 -699l349 750h200l351 -751l249 701q52 100 101 101q100 -1 100 -101l-300 -900q-50 -100 -101 -100h-150l-350 800l-350 -800h-149q-50 0 -101 100z" />
<glyph unicode="X" horiz-adv-x="1500" d="M0 950q0 150 101 150l549 -450l550 450h1q99 0 99 -150l-500 -400l500 -400q0 -149 -100 -150l-550 450l-549 -450q-100 0 -100 150l498 400z" />
<glyph unicode="Y" horiz-adv-x="1600" d="M0 950q1 150 100 150l600 -400l600 400q100 0 100 -150l-601 -400l1 -450v-2q0 -98 -99 -98q-100 0 -102 100l1 450z" />
<glyph unicode="Z" horiz-adv-x="1500" d="M0 850v50q0 200 200 200h1000q100 0 100 -100v-101l-950 -699h702q48 0 48 49q0 101 100 101q100 -1 100 -100v-50q0 -200 -200 -200h-999q-100 0 -100 100v100l949 700h-700q-50 0 -50 -50v-2q0 -98 -99 -98q-100 0 -101 100z" />
<glyph unicode="[" horiz-adv-x="800" d="M0 -100l1 1300v2q0 98 100 98h399q99 0 100 -100q0 -100 -100 -100h-300l1 -1100h299q100 0 100 -99q-2 -101 -100 -101h-399q-100 0 -101 100z" />
<glyph unicode="\" horiz-adv-x="1299" d="M0 950q0 150 100 150l999 -950q0 -150 -100 -150z" />
<glyph unicode="]" horiz-adv-x="800" d="M0 -99q0 99 100 99h300v1100h-300q-100 0 -100 100q1 100 101 100h399q100 0 101 -100l-1 -1300q0 -100 -100 -100h-399q-101 0 -101 101z" />
<glyph unicode="^" horiz-adv-x="700" d="M0 1300l199 200l100 -1l200 -200q0 -150 -100 -150l-150 150l-148 -149q-101 0 -101 150z" />
<glyph unicode="_" horiz-adv-x="2100" d="M1 -97q0 97 99 97h1702q99 0 100 -99q-2 -101 -101 -101h-1700q-100 0 -100 101v2z" />
<glyph unicode="`" horiz-adv-x="500" d="M0 1100q0 150 100 150l200 -200q0 -150 -101 -150z" />
<glyph unicode="a" horiz-adv-x="1100" d="M0 201v99q0 200 200 200h500q0 100 -100 100h-500q-100 0 -100 100q1 100 100 100h600q199 0 200 -200v-600l-699 1q-200 0 -201 200zM200 250q0 -50 50 -50h450v100h-425q-75 0 -75 -50z" />
<glyph unicode="b" d="M0 0v200h1v802q0 98 100 98t100 -100l-1 -200h501q299 0 299 -300v-202q0 -298 -300 -298h-700zM201 200h499q100 0 100 100v200q0 100 -98 100h-501v-400z" />
<glyph unicode="c" horiz-adv-x="1300" d="M0 200v400q0 200 200 200l699 -1q200 0 201 -200v-26q0 -97 -100 -98q-100 0 -100 100q-1 25 -25 25h-575q-100 0 -100 -100v-200q0 -100 100 -100h575q24 0 25 25v2q0 99 99 99q100 -1 101 -101l-1 -25q0 -200 -199 -200h-700q-199 0 -200 200z" />
<glyph unicode="d" d="M0 300v200q0 300 299 300h501l-1 200q0 100 100 100t100 -98v-802h1v-200h-700q-300 0 -300 300zM200 300q0 -100 100 -100h499v400h-501q-98 0 -98 -100v-200z" />
<glyph unicode="e" horiz-adv-x="1100" d="M0 200v400q0 200 200 200l500 -1q200 0 201 -200v-99q0 -200 -200 -200h-501q0 -100 100 -100h501q100 0 100 -100q-1 -100 -100 -100h-601q-199 0 -200 200zM200 500h426q75 0 75 50t-50 50h-351q-100 0 -100 -100z" />
<glyph unicode="f" horiz-adv-x="800" d="M0 700q0 100 100 100h100q0 300 300 300q100 0 100 -100q-1 -100 -100 -100q-100 0 -100 -100h100q99 0 99 -100v-2q0 -98 -99 -98h-100l-1 -500v-2q0 -98 -98 -98q-100 0 -101 100v500h-100q-100 0 -100 100z" />
<glyph unicode="g" d="M0 300v200q0 300 300 300h700v-800q0 -300 -300 -300h-400q-100 0 -100 100t100 100h400q100 0 100 100h-501q-299 0 -299 300zM200 300q0 -100 98 -100h501v400h-499q-100 0 -100 -100v-200z" />
<glyph unicode="h" d="M1 100v902q0 98 100 98t100 -100l-1 -200h501q299 0 299 -300v-400q0 -100 -99 -100q-100 0 -101 100v400q0 100 -98 100h-501v-499q0 -101 -100 -101t-100 100z" />
<glyph unicode="i" horiz-adv-x="400" d="M0 702q0 98 100 98t100 -100l1 -599q0 -101 -100 -101t-100 100zM0 1000q0 100 100 100t100 -100t-100 -100t-100 100z" />
<glyph unicode="j" horiz-adv-x="400" d="M-200 -200q0 100 100 100t100 100v700q0 100 100 100t100 -100v-700q0 -300 -300 -300q-100 0 -100 100zM0 1000q0 100 100 100t100 -100t-100 -100t-100 100z" />
<glyph unicode="k" d="M1 100v902q0 98 100 98q99 0 99 -98v-502l699 300h1q99 0 99 -150l-600 -250l600 -250v-3q0 -146 -99 -147l-700 300l1 -199q0 -101 -100 -101t-100 100z" />
<glyph unicode="l" horiz-adv-x="400" d="M1 100v902q0 98 100 98t100 -100v-899q0 -101 -100 -101t-100 100z" />
<glyph unicode="m" horiz-adv-x="1600" d="M0 800h1100q300 0 300 -300l1 -400q0 -100 -100 -100t-101 100v400q0 100 -99 100h-301v-500q0 -100 -99 -100q-100 0 -100 100l-1 500h-400v-500q0 -100 -99 -100q-100 0 -100 100z" />
<glyph unicode="n" d="M0 800h699q300 0 301 -300v-400q0 -100 -100 -100t-100 100l-1 400q0 100 -99 100h-500v-500q0 -100 -99 -100q-100 0 -100 100z" />
<glyph unicode="o" d="M0 200v398q0 200 200 200h600q200 0 200 -198v-400q0 -200 -200 -200h-599q-200 0 -201 200zM200 298q0 -98 99 -98h400q100 0 101 100l-1 198v2q0 98 -100 98h-400q-99 0 -99 -98v-202z" />
<glyph unicode="p" d="M0 600v200h700q300 0 300 -300v-200q0 -300 -299 -300h-501v-200q0 -100 -99 -100q-100 0 -100 98v802h-1zM201 200h501q98 0 98 100v200q0 100 -100 100h-499v-400z" />
<glyph unicode="q" d="M0 300v200q0 300 300 300h700v-800q0 -100 100 -100t100 -100t-100 -100q-300 0 -300 300h-501q-299 0 -299 300zM200 300q0 -100 98 -100h501v400h-499q-100 0 -100 -100v-200z" />
<glyph unicode="r" d="M0 800h699q300 0 301 -300q0 -100 -100 -100t-101 100q0 100 -99 100h-500v-500q0 -100 -99 -100q-100 0 -100 100z" />
<glyph unicode="s" horiz-adv-x="1300" d="M0 100q0 100 100 100h750q50 0 50 50q0 52 -50 52h-600q-250 0 -250 250t249 250l750 -1q100 0 100 -99q0 -100 -100 -100h-749q-50 -2 -50 -50q0 -50 50 -50h600q250 -1 251 -252q-1 -250 -251 -250h-750q-100 0 -100 100z" />
<glyph unicode="t" horiz-adv-x="800" d="M0 700q0 100 100 100h100v202q0 98 100 98t100 -99v-201h125q100 0 100 -100t-100 -100h-125v-300q0 -100 100 -100t100 -100t-100 -100q-300 0 -300 300v300h-100q-100 0 -100 100z" />
<glyph unicode="u" d="M0 700q0 100 100 100t100 -100l1 -400q0 -100 100 -100h499v500q0 100 99 100q100 0 101 -100v-700h-699q-300 0 -300 300z" />
<glyph unicode="v" d="M0 700q0 100 150 100l350 -600l350 600q150 0 150 -100l-400 -700h-200z" />
<glyph unicode="w" horiz-adv-x="1600" d="M0 700q1 100 101 100q49 0 99 -75l201 -425l199 500h200l201 -501l199 426q52 75 101 76q100 -1 100 -101l-250 -600q-50 -100 -101 -100h-150l-200 550l-200 -550h-149q-50 0 -101 100z" />
<glyph unicode="x" horiz-adv-x="1000" d="M1 150l269 250l-269 250q0 150 100 150l300 -279l299 279q100 0 100 -150l-269 -250l269 -250q0 -150 -100 -150l-299 279l-300 -279q-100 0 -100 150z" />
<glyph unicode="y" d="M0 300v400q0 100 100 100t100 -100v-400q0 -100 98 -100h501l1 500q0 100 101 100q99 0 99 -100v-700q0 -300 -300 -300h-400q-100 0 -100 100t100 100h400q100 0 100 100h-501q-299 0 -299 300z" />
<glyph unicode="z" horiz-adv-x="1300" d="M0 200l700 400h-475q-25 0 -25 -25v-2q0 -98 -99 -98q-100 0 -101 100v25q0 200 200 200h800q100 0 100 -100v-100l-700 -400h475q25 0 25 25q0 101 100 101q100 -1 100 -100v-26q0 -200 -200 -200h-799q-100 0 -100 100z" />
<glyph unicode="{" horiz-adv-x="800" d="M0 550q0 100 100 100t100 100v350q0 199 200 199l101 2q99 -1 100 -101q0 -99 -100 -99l-51 -1q-50 0 -50 -51v-349q0 -100 -100 -151q100 -49 100 -150v-349q0 -50 50 -50h50q101 0 101 -100q-1 -100 -100 -100h-101q-200 0 -200 200v349q0 101 -100 101t-100 100z" />
<glyph unicode="|" horiz-adv-x="400" d="M0 -100l1 1300v2q0 98 100 98q99 0 99 -100v-1300q0 -100 -99 -100q-100 0 -101 100z" />
<glyph unicode="}" horiz-adv-x="800" d="M0 -100q0 100 101 100h50q50 0 50 50v349q0 101 100 150q-100 51 -100 151v349q0 51 -50 51l-51 1q-100 0 -100 99q1 100 100 101l101 -2q200 0 200 -199v-350q0 -100 100 -100t100 -100t-100 -100t-100 -101v-349q0 -200 -200 -200h-101q-99 0 -100 100z" />
<glyph unicode="~" horiz-adv-x="900" d="M0 1300l200 200l101 -1q100 0 100 -50l37 -112l163 162q100 0 100 -150l-199 -200h-101q-100 0 -100 50l-38 113l-161 -163q-101 0 -102 151z" />
<glyph unicode="&#xa1;" horiz-adv-x="400" d="M0 100v600q1 100 100 101q100 0 101 -101l-1 -600v-2q0 -98 -100 -98t-100 100zM1 1000q0 100 100 100t100 -100t-100 -100t-100 100z" />
<glyph unicode="&#xa2;" horiz-adv-x="1400" d="M1 298v502q0 249 250 250h250q0 100 100 100t100 -100h300q200 -2 200 -202v-50q0 -100 -101 -100q-100 0 -100 100v2q0 49 -49 49h-250v-599h250q50 0 50 50q0 100 100 100t100 -100v-50q0 -200 -201 -200l-299 1v-2q0 -99 -100 -99t-100 100h-250q-250 0 -250 248z M201 350q0 -100 100 -100h200v599h-202q-98 0 -98 -99v-400z" />
<glyph unicode="&#xa3;" horiz-adv-x="1350" d="M0 100q0 100 100 100t100 100v150h-100q-100 0 -100 100t100 100h100v250q0 200 200 200h500q200 0 201 -200l-1 -50q0 -100 -100 -100t-100 100q0 51 -49 51l-351 -1q-100 0 -100 -100v-150h200q100 0 100 -100t-100 -100h-200v-150q0 -100 100 -100h501q99 0 99 -100 t-100 -100h-900q-99 0 -100 100z" />
<glyph unicode="&#xa4;" horiz-adv-x="1014" d="M122 413l118 117q-32 46 -48 103q-12 42 -12 84q0 44 13 87q16 55 47 99l-118 118l80 81l118 -118q44 30 99 46q44 14 89 14q41 0 83 -12q57 -17 102 -48l118 118l80 -81l-117 -117q31 -46 48 -102q12 -42 12 -85q0 -42 -12 -85q-17 -56 -48 -102l117 -117l-80 -81 l-118 118q-45 -32 -101 -48q-42 -12 -85 -12q-42 0 -85 12q-57 16 -102 48l-118 -118zM284 716q0 -28 9 -56q16 -59 57 -100q41 -40 99 -57q29 -8 58 -8t58 8q58 17 99 57q40 41 57 99q9 29 9 58t-9 58q-17 58 -57 99q-41 40 -100 57q-29 8 -58 8t-58 -9q-58 -17 -98 -56 q-39 -40 -56 -98q-10 -30 -10 -60z" />
<glyph unicode="&#xa5;" horiz-adv-x="1600" d="M0 950q1 150 100 150l600 -400l600 400q100 0 100 -150l-526 -350h126q100 0 100 -100t-100 -100h-201l1 -100h200q100 0 100 -100t-100 -100h-200v-2q0 -98 -99 -98q-100 0 -102 100h-200q-99 0 -99 100t100 100h199l1 100h-200q-100 0 -100 100t100 100h125z" />
<glyph unicode="&#xa6;" horiz-adv-x="1014" d="M427 371h160v-789h-160v789zM427 789v789h160v-789h-160z" />
<glyph unicode="&#xa7;" horiz-adv-x="1014" d="M170 1130q0 148 89 237q82 79 216 86q8 1 17 1h3q66 0 163 -16.5t97 -41.5v-194h-51q-5 81 -80 132q-70 47 -149 51h-15q-78 0 -125 -44.5t-47 -117.5q0 -132 287 -269q149 -67 204.5 -143.5t55.5 -187.5q0 -171 -101 -282q-47 -39 -99 -64q108 -56 154 -118 q55 -77 55 -187q0 -171 -101 -283q-124 -102 -277 -105v1q-6 -1 -13 -1h-3q-66 0 -163 16.5t-97 41.5v194h51q5 -81 80 -132q68 -45 145 -50q113 6 185 69q72 64 72 165q0 125 -316 276q-123 64 -175.5 137t-52.5 177q0 148 89 237q67 65 170 82l-40 19q-123 64 -175.5 137 t-52.5 177zM297 571q0 -123 248 -250q56 16 97 53q73 65 73 166q0 5 -1 10h-2q-1 14 -4 27q-22 61 -113 127q-59 29 -126 29q-78 0 -125 -44.5t-47 -117.5z" />
<glyph unicode="&#xa8;" horiz-adv-x="800" d="M0 1250q0 100 100 100t100 -99q0 -101 -100 -101t-100 100zM401 1250v2q0 98 100 98t100 -99q0 -101 -100 -101t-100 100z" />
<glyph unicode="&#xa9;" horiz-adv-x="1674" d="M100 718q0 148 55.5 283t159.5 238q102 104 238.5 160.5t286.5 56.5q145 0 280 -56.5t239 -160.5q102 -101 158.5 -238t56.5 -283q0 -147 -56.5 -282t-162.5 -240q-105 -105 -239 -159.5t-283 -54.5q-146 0 -278 55.5t-238 160.5q-106 104 -161.5 237.5t-55.5 282.5z M160 718q0 -137 51 -259t148 -219q98 -96 219 -147t256 -51q137 0 259.5 50.5t219.5 145.5q97 98 149 221.5t52 258.5q0 134 -52 259.5t-145 219.5q-96 96 -220 147.5t-258 51.5q-137 0 -262 -51.5t-220 -147.5t-146 -219.5t-51 -259.5zM351 719q0 126 65.5 244t187.5 184.5 t254 66.5q38 0 75 -6.5t76 -20.5q5 -1 9 -1q19 0 26 30h42l72 -198h-44q-52 94 -131 124q-72 26 -147 26h-15q-86 -8 -166.5 -71t-121.5 -177q-33 -90 -33 -184q0 -25 2 -50q11 -121 69.5 -224t149.5 -152q72 -40 166 -42q124 0 194 56t70 126h53v-100q0 -46 -96.5 -86.5 t-242.5 -40.5q-142 0 -264 68t-186 185t-64 243z" />
<glyph unicode="&#xaa;" horiz-adv-x="648" />
<glyph unicode="&#xab;" horiz-adv-x="1950" d="M0 550q0 100 100 150l800 251q100 0 100 -151l-750 -250l750 -250q0 -150 -100 -150l-800 250q-100 50 -100 150zM750 550q0 100 100 150l800 251q100 0 100 -151l-750 -250l750 -250q0 -150 -100 -150l-800 250q-100 50 -100 150z" />
<glyph unicode="&#xac;" horiz-adv-x="1014" d="M87 667v100h840v-491l-1 -1h-98v392h-741z" />
<glyph unicode="&#xad;" d="M0 550q1 100 100 100l800 1q100 -1 100 -100v-2q0 -99 -100 -99h-802q-98 0 -98 100z" />
<glyph unicode="&#xae;" horiz-adv-x="1674" d="M100 718q0 148 55.5 283t159.5 238q102 104 238.5 160.5t286.5 56.5q145 0 280 -56.5t239 -160.5q102 -101 158.5 -238t56.5 -283q0 -147 -56.5 -282t-162.5 -240q-105 -105 -239 -159.5t-283 -54.5q-146 0 -278 55.5t-238 160.5q-106 104 -161.5 237.5t-55.5 282.5z M160 718q0 -137 51 -259t148 -219q98 -96 219 -147t256 -51q137 0 259.5 50.5t219.5 145.5q97 98 149 221.5t52 258.5q0 134 -52 259.5t-145 219.5q-96 96 -220 147.5t-258 51.5q-137 0 -262 -51.5t-220 -147.5t-146 -219.5t-51 -259.5zM524 269v50h43q37 0 37 121v538 q0 121 -37 121h-43v70h356q64 -1 125 -42q60 -41 92.5 -114t32.5 -152q0 -78 -32 -150.5t-114 -134.5l82 -116q100 -141 150 -141h34v-50h-346v50h45q30 0 30 22q0 29 -69 114l-75 102q-42 0 -84 42v-159q0 -121 36 -121h53v-50h-316zM751 725l3 -8q23 -56 56 -81 q29 -22 56 -22h6q31 4 61.5 38.5t46.5 97.5q13 50 13 103q0 13 -1 27q-4 67 -28 124.5t-56.5 76t-63.5 18.5h-93v-374z" />
<glyph unicode="&#xaf;" horiz-adv-x="670" />
<glyph unicode="&#xb0;" horiz-adv-x="674" d="M60 1164q0 116 81.5 197t197.5 81q115 0 196 -81.5t81 -196.5q0 -114 -82 -196t-197 -82q-117 0 -197 81t-80 197zM130 1163q0 -87 61 -147t148 -60t147 60t60 147t-60.5 148t-146.5 61t-147.5 -61t-61.5 -148z" />
<glyph unicode="&#xb1;" d="M0 200q0 100 100 100h800q100 0 100 -100t-100 -100h-800q-100 0 -100 100zM0 750q1 100 100 100h300v202q0 98 100 98q99 0 99 -101l2 -199h299q100 0 100 -99v-2q0 -99 -100 -99h-299l-1 -200q0 -100 -100 -100q-99 0 -99 100l-1 200h-302q-98 0 -98 100z" />
<glyph unicode="&#xb2;" horiz-adv-x="1014" />
<glyph unicode="&#xb3;" horiz-adv-x="1014" />
<glyph unicode="&#xb4;" horiz-adv-x="1024" d="M316 1078l291 297q35 35 55.5 47t40.5 12q33 0 53.5 -20t20.5 -51q0 -22 -15.5 -42t-46.5 -40l-330 -203h-69z" />
<glyph unicode="&#xb5;" d="M0 -201v600q0 8 1 15l-1 286q0 100 100 100t100 -100l1 -293v-107q0 -100 100 -100h499v500q0 100 99 100q100 0 101 -100v-700h-699q-55 0 -101 10v-213q0 -98 -100 -98t-100 100z" />
<glyph unicode="&#xb6;" horiz-adv-x="1024" d="M93 1086q0 157 107.5 253t285.5 96h443v-70h-127v-1365h-82v1365h-166v-1365h-84v738q-174 8 -275.5 102.5t-101.5 245.5z" />
<glyph unicode="&#xb7;" horiz-adv-x="508" d="M129 709q0 15 16 31l82 84q15 14 29 14q13 0 31 -16l80 -86q12 -16 12 -29q0 -15 -14 -31l-80 -88q-20 -20 -29 -20q-16 0 -29 14l-88 101q-10 13 -10 26z" />
<glyph unicode="&#x2219;" horiz-adv-x="508" d="M129 709q0 15 16 31l82 84q15 14 29 14q13 0 31 -16l80 -86q12 -16 12 -29q0 -15 -14 -31l-80 -88q-20 -20 -29 -20q-16 0 -29 14l-88 101q-10 13 -10 26z" />
<glyph unicode="&#xb8;" horiz-adv-x="1024" d="M360 -290q85 -52 152 -52q66 0 94.5 21.5t28.5 66.5t-49 64q-40 16 -102 16q-16 0 -34 -2l48 176h63l-37 -104q32 4 62 5q86 0 134 -40.5t48 -113.5q0 -76 -58.5 -120.5t-160.5 -44.5q-109 0 -189 32v96z" />
<glyph unicode="&#xb9;" horiz-adv-x="1014" />
<glyph unicode="&#xba;" horiz-adv-x="718" />
<glyph unicode="&#xbb;" horiz-adv-x="1950" d="M0 300l750 250l-750 250q0 151 100 151l800 -251q100 -50 100 -150t-100 -150l-800 -250q-100 0 -100 150zM750 299l750 250l-750 250q0 151 100 151l800 -251q100 -50 100 -150t-100 -150l-800 -250q-100 0 -100 150z" />
<glyph unicode="&#xbc;" horiz-adv-x="1708" />
<glyph unicode="&#xbd;" horiz-adv-x="1964" />
<glyph unicode="&#xbe;" horiz-adv-x="1708" />
<glyph unicode="&#xbf;" horiz-adv-x="1300" d="M0 250v150q0 250 250 250h600q50 0 50 50q0 100 100 100t100 -100v-50q0 -200 -201 -200h-599q-100 0 -100 -98v-54q0 -98 100 -98h550q49 0 49 50q0 100 100 100t100 -98v-2l1 -50q-1 -200 -201 -200h-649q-250 0 -250 250zM899 999q0 101 99 101q101 0 101 -100v-2 q0 -98 -100 -98t-100 99z" />
<glyph unicode="&#xc0;" horiz-adv-x="1500" d="M0 99l550 1001h200l550 -1000q0 -100 -150 -100l-111 200h-778l-111 -200q-150 0 -150 99zM372 400h556l-278 500zM500 1350q0 150 100 150l200 -200q0 -150 -101 -150z" />
<glyph unicode="&#xc1;" horiz-adv-x="1500" d="M0 99l550 1001h200l550 -1000q0 -100 -150 -100l-111 200h-778l-111 -200q-150 0 -150 99zM372 400h556l-278 500zM500 1300l200 200q100 0 100 -150l-199 -200q-101 0 -101 150z" />
<glyph unicode="&#xc2;" horiz-adv-x="1500" d="M0 99l550 1001h200l550 -1000q0 -100 -150 -100l-111 200h-778l-111 -200q-150 0 -150 99zM372 400h556l-278 500zM400 1300l199 200h101l199 -201q0 -149 -99 -149h-1l-150 149l-148 -149q-101 0 -101 150z" />
<glyph unicode="&#xc3;" horiz-adv-x="1500" d="M0 99l550 1001h200l550 -1000q0 -100 -150 -100l-111 200h-778l-111 -200q-150 0 -150 99zM300 1300l200 200h100q100 -1 100 -51l38 -112l162 162q100 0 100 -150l-199 -200h-101q-100 0 -100 50l-37 112l-162 -162q-101 0 -101 151zM372 400h556l-278 500z" />
<glyph unicode="&#xc4;" horiz-adv-x="1500" d="M0 99l550 1001h200l550 -1000q0 -100 -150 -100l-111 200h-778l-111 -200q-150 0 -150 99zM350 1250v2q0 98 100 98t100 -99q0 -101 -100 -101t-100 100zM372 400h556l-278 500zM751 1250v2q0 98 100 98t100 -99q0 -101 -100 -101t-100 100z" />
<glyph unicode="&#xc5;" horiz-adv-x="1500" d="M0 99l550 1001h200l550 -1000q0 -100 -150 -100l-111 200h-778l-111 -200q-150 0 -150 99zM372 400h556l-278 500zM550 1251v2q0 98 100 98t100 -99q0 -101 -100 -101t-100 100z" />
<glyph unicode="&#xc6;" horiz-adv-x="1750" d="M0 99l550 1001h800q200 0 200 -200v-50q0 -100 -100 -100t-100 100q0 50 -50 50h-450v-250h400q99 0 99 -98v-4q0 -98 -99 -98h-400l1 -250h449q50 0 50 50q0 100 100 100t100 -100v-50q0 -200 -200 -200h-599q-100 0 -100 100v100h-390l-111 -200q-150 0 -150 99z M372 400h278v500z" />
<glyph unicode="&#xc7;" horiz-adv-x="1500" d="M0 200v700q0 200 200 200h900q200 0 201 -200l-1 -50v-2q0 -97 -100 -98q-100 0 -100 100q0 51 -49 51l-751 -1q-100 0 -100 -100v-500q0 -100 100 -100l751 1h2q47 0 48 49v2q0 99 99 99q100 -1 100 -101v-49q0 -200 -197 -200h-353v-1q0 -300 -300 -300 q-100 0 -100 100t100 100t100 100h-350q-199 0 -200 200z" />
<glyph unicode="&#xc8;" horiz-adv-x="1300" d="M1 100v902q0 98 100 98h799q200 0 200 -200v-50q0 -100 -100 -100t-100 100q0 50 -50 50h-650v-250h600q99 0 99 -98v-4q0 -98 -99 -98h-600l1 -250h649q50 0 50 50q0 100 100 100t100 -100v-50q0 -200 -200 -200h-799q-100 0 -100 100zM401 1350q0 150 100 150l200 -200 q0 -150 -101 -150z" />
<glyph unicode="&#xc9;" horiz-adv-x="1300" d="M2 100v902q0 98 100 98h799q200 0 200 -200v-50q0 -100 -100 -100t-100 100q0 50 -50 50h-650v-250h600q99 0 99 -98v-4q0 -98 -99 -98h-600l1 -250h649q50 0 50 50q0 100 100 100t100 -100v-50q0 -200 -200 -200h-799q-100 0 -100 100zM401 1300l200 200q100 0 100 -150 l-199 -200q-101 0 -101 150z" />
<glyph unicode="&#xca;" horiz-adv-x="1300" d="M1 100v902q0 98 100 98h799q200 0 200 -200v-50q0 -100 -100 -100t-100 100q0 50 -50 50h-650v-250h600q99 0 99 -98v-4q0 -98 -99 -98h-600l1 -250h649q50 0 50 50q0 100 100 100t100 -100v-50q0 -200 -200 -200h-799q-100 0 -100 100zM301 1300l199 200l100 -1 l200 -200q0 -150 -100 -150l-151 150l-147 -149q-101 0 -101 150z" />
<glyph unicode="&#xcb;" horiz-adv-x="1300" d="M1 100v902q0 98 100 98h799q200 0 200 -200v-50q0 -100 -100 -100t-100 100q0 50 -50 50h-650v-250h600q99 0 99 -98v-4q0 -98 -99 -98h-600l1 -250h649q50 0 50 50q0 100 100 100t100 -100v-50q0 -200 -200 -200h-799q-100 0 -100 100zM250 1250v2q0 98 100 98t100 -99 q0 -101 -100 -101t-100 100zM651 1250v2q0 98 100 98t100 -99q0 -101 -100 -101t-100 100z" />
<glyph unicode="&#xcc;" horiz-adv-x="400" d="M-50 1350q0 150 100 150l200 -200q0 -150 -101 -150zM1 100v902q0 98 100 98t100 -100v-899q0 -101 -100 -101t-100 100z" />
<glyph unicode="&#xcd;" horiz-adv-x="400" d="M-49 1300l200 200q100 0 100 -150l-199 -200q-101 0 -101 150zM2 100v902q0 98 100 98t100 -100v-899q0 -101 -100 -101t-100 100z" />
<glyph unicode="&#xce;" horiz-adv-x="400" d="M-149 1301l199 200l100 -1l200 -200q0 -150 -100 -150l-150 150l-148 -149q-101 0 -101 150zM2 100v902q0 98 100 98t100 -100v-899q0 -101 -100 -101t-100 100z" />
<glyph unicode="&#xcf;" horiz-adv-x="400" d="M-199 1250v2q0 98 100 98t100 -99q0 -101 -100 -101t-100 100zM2 100v902q0 98 100 98t100 -100v-899q0 -101 -100 -101t-100 100zM202 1250v2q0 98 100 98t100 -99q0 -101 -100 -101t-100 100z" />
<glyph unicode="&#xd0;" horiz-adv-x="1600" d="M0 550q1 100 100 100h150v350q0 100 99 100h501q550 0 550 -548v-4q0 -548 -550 -548h-501q-99 0 -100 100v350h-151q-98 0 -98 100zM449 200h352q399 0 399 350t-399 350h-352v-249h151q100 -1 100 -100v-2q0 -99 -100 -99h-151v-250z" />
<glyph unicode="&#xd1;" horiz-adv-x="1600" d="M1 100v902q0 98 100 98h99l1000 -850v750q0 100 100 100t100 -100v-900q0 -100 -100 -100h-100l-1000 850l1 -749q0 -101 -100 -101t-100 100zM350 1301l200 200h100q100 -1 100 -51l38 -112l162 162q100 0 100 -150l-199 -200h-101q-100 0 -100 50l-37 112l-162 -162 q-101 0 -101 151z" />
<glyph unicode="&#xd2;" horiz-adv-x="1600" d="M0 200v700q0 200 200 200h1000q200 0 200 -198v-702q0 -200 -200 -200h-999q-200 0 -201 200zM201 298q0 -98 99 -98h800q100 0 101 100l-1 500v2q0 98 -100 98h-800q-99 0 -99 -98v-504zM550 1349q0 150 100 150l200 -200q0 -150 -101 -150z" />
<glyph unicode="&#xd3;" horiz-adv-x="1600" d="M0 200v700q0 200 200 200h1000q200 0 200 -198v-702q0 -200 -200 -200h-999q-200 0 -201 200zM201 298q0 -98 99 -98h800q100 0 101 100l-1 500v2q0 98 -100 98h-800q-99 0 -99 -98v-504zM549 1300l200 200q100 0 100 -150l-199 -200q-101 0 -101 150z" />
<glyph unicode="&#xd4;" horiz-adv-x="1600" d="M0 200v700q0 200 200 200h1000q200 0 200 -198v-702q0 -200 -200 -200h-999q-200 0 -201 200zM201 298q0 -98 99 -98h800q100 0 101 100l-1 500v2q0 98 -100 98h-800q-99 0 -99 -98v-504zM449 1300l199 200h100l200 -201q0 -149 -99 -149h-1l-150 149l-148 -149 q-101 0 -101 150z" />
<glyph unicode="&#xd5;" horiz-adv-x="1600" d="M0 200v700q0 200 200 200h1000q200 0 200 -198v-702q0 -200 -200 -200h-999q-200 0 -201 200zM201 298q0 -98 99 -98h800q100 0 101 100l-1 500v2q0 98 -100 98h-800q-99 0 -99 -98v-504zM350 1300l200 200h100q101 -1 101 -51l37 -112l163 162q100 0 100 -150l-199 -200 h-101q-100 0 -100 50l-38 113l-161 -163q-101 0 -102 151z" />
<glyph unicode="&#xd6;" horiz-adv-x="1600" d="M0 200v700q0 200 200 200h1000q200 0 200 -198v-702q0 -200 -200 -200h-999q-200 0 -201 200zM201 298q0 -98 99 -98h800q100 0 101 100l-1 500v2q0 98 -100 98h-800q-99 0 -99 -98v-504zM400 1250v2q0 98 100 98t100 -99q0 -101 -100 -101t-100 100zM801 1250v2 q0 98 100 98t100 -99q0 -101 -100 -101t-100 100z" />
<glyph unicode="&#xd7;" horiz-adv-x="1014" d="M161 470l247 247l-247 248l99 98l247 -247l248 247l98 -99l-247 -247l247 -247l-99 -99l-247 247l-247 -247z" />
<glyph unicode="&#xd8;" horiz-adv-x="1600" d="M0 200v700q0 200 200 200h1000q200 0 200 -198v-702q0 -200 -200 -200h-999q-200 0 -201 200zM200 296q0 -50 27 -74l713 678h-641q-99 0 -99 -98v-506zM462 200h637q100 0 101 100l-1 500v4q0 49 -26 73z" />
<glyph unicode="&#xd9;" horiz-adv-x="1500" d="M0 200v800q0 100 100 100t100 -100v-700q0 -100 100 -100h700q100 0 100 100v700q0 100 99 100q101 0 101 -100v-799q0 -200 -197 -200h-2l-901 -1q-199 0 -200 200zM500 1350q0 150 100 150l200 -200q0 -150 -101 -150z" />
<glyph unicode="&#xda;" horiz-adv-x="1500" d="M0 200v800q0 100 100 100t100 -100v-700q0 -100 100 -100h700q100 0 100 100v700q0 100 99 100q101 0 101 -100v-799q0 -200 -197 -200h-2l-901 -1q-199 0 -200 200zM500 1300l200 200q100 0 100 -150l-199 -200q-101 0 -101 150z" />
<glyph unicode="&#xdb;" horiz-adv-x="1500" d="M0 200v800q0 100 100 100t100 -100v-700q0 -100 100 -100h700q100 0 100 100v700q0 100 99 100q101 0 101 -100v-799q0 -200 -197 -200h-2l-901 -1q-199 0 -200 200zM400 1299l199 200h100l200 -201q0 -149 -99 -149h-1l-151 150l-147 -150q-101 0 -101 150z" />
<glyph unicode="&#xdc;" horiz-adv-x="1500" d="M0 200v800q0 100 100 100t100 -100v-700q0 -100 100 -100h700q100 0 100 100v700q0 100 99 100q101 0 101 -100v-799q0 -200 -197 -200h-2l-901 -1q-199 0 -200 200zM350 1250v2q0 98 100 98t100 -99q0 -101 -100 -101t-100 100zM751 1250v2q0 98 100 98t100 -99 q0 -101 -100 -101t-100 100z" />
<glyph unicode="&#xdd;" horiz-adv-x="1600" d="M0 950q1 150 100 150l600 -400l600 400q100 0 100 -150l-601 -400l1 -450v-2q0 -98 -99 -98q-100 0 -102 100l1 450zM549 1300l200 200q100 0 100 -150l-199 -200q-101 0 -101 150z" />
<glyph unicode="&#xde;" horiz-adv-x="1600" d="M0 100v900q0 100 101 100q99 0 99 -100v-100h850q350 0 350 -298v-52q0 -300 -350 -300h-850v-150q0 -100 -100 -100q-99 0 -100 100zM200 449l804 1q196 0 196 100v50q0 100 -200 100h-800v-251z" />
<glyph unicode="&#xdf;" horiz-adv-x="1400" d="M0 100v700q0 300 350 300h400q351 0 351 -300v-50q0 -151 -100 -200q199 -50 199 -200l1 -50q0 -300 -350 -300h-252q-100 0 -100 100t101 100h201q200 0 200 99l-1 51v1q0 99 -249 99h-151q-100 0 -100 100t100 100h56q244 0 244 99v50q0 101 -199 101h-301 q-200 0 -200 -100v-700q0 -100 -100 -100t-100 100z" />
<glyph unicode="&#xe0;" horiz-adv-x="1100" d="M0 201v99q0 200 200 200h500q0 100 -100 100h-500q-100 0 -100 100q1 100 100 100h600q199 0 200 -200v-600l-699 1q-200 0 -201 200zM200 250q0 -50 50 -50h450v100h-425q-75 0 -75 -50zM300 1100q0 150 100 150l200 -200q0 -150 -101 -150z" />
<glyph unicode="&#xe1;" horiz-adv-x="1100" d="M0 201v99q0 200 200 200h500q0 100 -100 100h-500q-100 0 -100 100q1 100 100 100h600q199 0 200 -200v-600l-699 1q-200 0 -201 200zM200 250q0 -50 50 -50h450v100h-425q-75 0 -75 -50zM350 1050l200 200q100 0 100 -150l-199 -200q-101 0 -101 150z" />
<glyph unicode="&#xe2;" horiz-adv-x="1100" d="M0 201v99q0 200 200 200h500q0 100 -100 100h-500q-100 0 -100 100q1 100 100 100h600q199 0 200 -200v-600l-699 1q-200 0 -201 200zM200 250q0 -50 50 -50h450v100h-425q-75 0 -75 -50zM201 1051l199 200l100 -1l200 -200q0 -150 -100 -150l-150 150l-148 -149 q-101 0 -101 150z" />
<glyph unicode="&#xe3;" horiz-adv-x="1100" d="M0 201v99q0 200 200 200h500q0 100 -100 100h-500q-100 0 -100 100q1 100 100 100h600q199 0 200 -200v-600l-699 1q-200 0 -201 200zM100 1051l200 200l101 -1q100 0 100 -50l37 -112l163 162q100 0 100 -150l-199 -200h-101q-100 0 -100 50l-38 113l-161 -163 q-101 0 -102 151zM200 250q0 -50 50 -50h450v100h-425q-75 0 -75 -50z" />
<glyph unicode="&#xe4;" horiz-adv-x="1100" d="M0 201v99q0 200 200 200h500q0 100 -100 100h-500q-100 0 -100 100q1 100 100 100h600q199 0 200 -200v-600l-699 1q-200 0 -201 200zM150 1000v2q0 98 100 98t100 -99q0 -101 -100 -101t-100 100zM200 250q0 -50 50 -50h450v100h-425q-75 0 -75 -50zM551 1000v2 q0 98 100 98t100 -99q0 -101 -100 -101t-100 100z" />
<glyph unicode="&#xe5;" horiz-adv-x="1100" d="M0 201v99q0 200 200 200h500q0 100 -100 100h-500q-100 0 -100 100q1 100 100 100h600q199 0 200 -200v-600l-699 1q-200 0 -201 200zM200 250q0 -50 50 -50h450v100h-425q-75 0 -75 -50zM350 1000q0 100 100 100t100 -100t-100 -100t-100 100z" />
<glyph unicode="&#xe6;" horiz-adv-x="1400" d="M0 201v99q0 200 200 200h300q0 100 -100 100h-300q-100 0 -100 100q1 100 100 100h400q58 0 100 -17q41 17 100 17l299 -1q200 0 201 -200v-99q0 -200 -200 -200h-300q0 -100 100 -100h300q100 0 100 -100q-1 -100 -100 -100h-401l-498 1q-200 0 -201 200zM200 250 q0 -50 50 -50h250v100h-225q-75 0 -75 -50zM700 500h225q75 0 75 50t-50 50h-150q-100 0 -100 -100z" />
<glyph unicode="&#xe7;" horiz-adv-x="1300" d="M0 200v400q0 200 200 200l699 -1q200 0 201 -200v-26q0 -97 -100 -98q-100 0 -100 100q-1 25 -25 25h-575q-100 0 -100 -100v-200q0 -100 100 -100h575q24 0 25 25v2q0 99 99 99q100 -1 101 -101l-1 -25q0 -200 -199 -200h-250q0 -300 -300 -300q-100 0 -100 100t100 100 t100 100h-250q-199 0 -200 200z" />
<glyph unicode="&#xe8;" horiz-adv-x="1100" d="M0 200v400q0 200 200 200l500 -1q200 0 201 -200v-99q0 -200 -200 -200h-501q0 -100 100 -100h501q100 0 100 -100q-1 -100 -100 -100h-601q-199 0 -200 200zM200 500h426q75 0 75 50t-50 50h-351q-100 0 -100 -100zM300 1100q0 150 100 150l200 -200q0 -150 -101 -150z " />
<glyph unicode="&#xe9;" horiz-adv-x="1100" d="M0 200v400q0 200 200 200l500 -1q200 0 201 -200v-99q0 -200 -200 -200h-501q0 -100 100 -100h501q100 0 100 -100q-1 -100 -100 -100h-601q-199 0 -200 200zM200 500h426q75 0 75 50t-50 50h-351q-100 0 -100 -100zM350 1050l200 200q100 0 100 -150l-199 -200 q-101 0 -101 150z" />
<glyph unicode="&#xea;" horiz-adv-x="1100" d="M0 200v400q0 200 200 200l500 -1q200 0 201 -200v-99q0 -200 -200 -200h-501q0 -100 100 -100h501q100 0 100 -100q-1 -100 -100 -100h-601q-199 0 -200 200zM200 500h426q75 0 75 50t-50 50h-351q-100 0 -100 -100zM201 1051l199 200l100 -1l200 -200q0 -150 -100 -150 l-150 150l-148 -149q-101 0 -101 150z" />
<glyph unicode="&#xeb;" horiz-adv-x="1100" d="M0 200v400q0 200 200 200l500 -1q200 0 201 -200v-99q0 -200 -200 -200h-501q0 -100 100 -100h501q100 0 100 -100q-1 -100 -100 -100h-601q-199 0 -200 200zM150 1000v2q0 98 100 98t100 -99q0 -101 -100 -101t-100 100zM200 500h426q75 0 75 50t-50 50h-351 q-100 0 -100 -100zM551 1000v2q0 98 100 98t100 -99q0 -101 -100 -101t-100 100z" />
<glyph unicode="&#xec;" horiz-adv-x="400" d="M-50 1100q0 150 100 150l200 -200q0 -150 -101 -150zM0 702q0 98 100 98t100 -100l1 -599q0 -101 -100 -101t-100 100z" />
<glyph unicode="&#xed;" horiz-adv-x="400" d="M-50 1050l200 200q100 0 100 -150l-199 -200q-101 0 -101 150zM0 702q0 98 100 98t100 -100l1 -599q0 -101 -100 -101t-100 100z" />
<glyph unicode="&#xee;" horiz-adv-x="400" d="M-149 1051l199 200l100 -1l200 -200q0 -150 -100 -150l-150 150l-148 -149q-101 0 -101 150zM0 702q0 98 100 98t100 -100l1 -599q0 -101 -100 -101t-100 100z" />
<glyph unicode="&#xef;" horiz-adv-x="400" d="M-201 1000v2q0 98 100 98t100 -99q0 -101 -100 -101t-100 100zM0 702q0 98 100 98t100 -100l1 -599q0 -101 -100 -101t-100 100zM200 1000v2q0 98 100 98t100 -99q0 -101 -100 -101t-100 100z" />
<glyph unicode="&#xf0;" horiz-adv-x="1600" d="M0 298v52q0 300 350 300h651v99h-101q-100 1 -100 100v2q0 99 100 99h101v50q0 100 100 100q99 0 100 -100v-50h101q98 0 98 -100q-1 -100 -100 -100h-99l-1 -650q0 -100 -100 -100h-750q-350 0 -350 298zM200 300q0 -100 200 -100h600l1 251l-601 -1h-4 q-196 0 -196 -100v-50z" />
<glyph unicode="&#xf1;" d="M0 800h699q300 0 301 -300v-400q0 -100 -100 -100t-100 100l-1 400q0 100 -99 100h-500v-500q0 -100 -99 -100q-100 0 -100 100zM150 1050l200 200l101 -1q100 0 100 -50l37 -112l163 162q100 0 100 -150l-199 -200h-101q-100 0 -100 50l-38 113l-161 -163 q-101 0 -102 151z" />
<glyph unicode="&#xf2;" d="M0 200v398q0 200 200 200h600q200 0 200 -198v-400q0 -200 -200 -200h-599q-200 0 -201 200zM200 298q0 -98 99 -98h400q100 0 101 100l-1 198v2q0 98 -100 98h-400q-99 0 -99 -98v-202zM300 1100q0 150 100 150l200 -200q0 -150 -101 -150z" />
<glyph unicode="&#xf3;" d="M0 200v398q0 200 200 200h600q200 0 200 -198v-400q0 -200 -200 -200h-599q-200 0 -201 200zM200 298q0 -98 99 -98h400q100 0 101 100l-1 198v2q0 98 -100 98h-400q-99 0 -99 -98v-202zM350 1050l200 200q100 0 100 -150l-199 -200q-101 0 -101 150z" />
<glyph unicode="&#xf4;" d="M0 200v398q0 200 200 200h600q200 0 200 -198v-400q0 -200 -200 -200h-599q-200 0 -201 200zM200 298q0 -98 99 -98h400q100 0 101 100l-1 198v2q0 98 -100 98h-400q-99 0 -99 -98v-202zM250 1051l199 200l100 -1l200 -200q0 -150 -100 -150l-150 150l-148 -149 q-101 0 -101 150z" />
<glyph unicode="&#xf5;" d="M0 200v398q0 200 200 200h600q200 0 200 -198v-400q0 -200 -200 -200h-599q-200 0 -201 200zM150 1051l200 200l101 -1q100 0 100 -50l37 -112l163 162q100 0 100 -150l-199 -200h-101q-100 0 -100 50l-38 113l-161 -163q-101 0 -102 151zM200 298q0 -98 99 -98h400 q100 0 101 100l-1 198v2q0 98 -100 98h-400q-99 0 -99 -98v-202z" />
<glyph unicode="&#xf6;" d="M0 200v398q0 200 200 200h600q200 0 200 -198v-400q0 -200 -200 -200h-599q-200 0 -201 200zM200 298q0 -98 99 -98h400q100 0 101 100l-1 198v2q0 98 -100 98h-400q-99 0 -99 -98v-202zM200 1000v2q0 98 100 98t100 -99q0 -101 -100 -101t-100 100zM601 1000v2 q0 98 100 98t100 -99q0 -101 -100 -101t-100 100z" />
<glyph unicode="&#xf7;" d="M0 550q1 100 100 100l800 1q100 -1 100 -100v-2q0 -99 -100 -99h-802q-98 0 -98 100zM399 250v2q0 98 100 98t100 -99q0 -101 -100 -101t-100 100zM401 850v2q0 98 100 98t100 -99q0 -101 -100 -101t-100 100z" />
<glyph unicode="&#xf8;" d="M0 200v398q0 200 200 200h597l2 2q14 0 25 -3q176 -11 176 -197v-400q0 -200 -200 -200h-601q-198 1 -199 200zM200 298q0 -28 8 -48l374 348h-283q-99 0 -99 -98v-202zM415 200h284q100 0 101 100l-1 198v2q0 29 -9 49z" />
<glyph unicode="&#xf9;" d="M0 700q0 100 100 100t100 -100l1 -400q0 -100 100 -100h499v500q0 100 99 100q100 0 101 -100v-700h-699q-300 0 -300 300zM300 1100q0 150 100 150l200 -200q0 -150 -101 -150z" />
<glyph unicode="&#xfa;" d="M0 700q0 100 100 100t100 -100l1 -400q0 -100 100 -100h499v500q0 100 99 100q100 0 101 -100v-700h-699q-300 0 -300 300zM350 1050l200 200q100 0 100 -150l-199 -200q-101 0 -101 150z" />
<glyph unicode="&#xfb;" d="M0 700q0 100 100 100t100 -100l1 -400q0 -100 100 -100h499v500q0 100 99 100q100 0 101 -100v-700h-699q-300 0 -300 300zM250 1051l199 200l100 -1l200 -200q0 -150 -100 -150l-150 150l-148 -149q-101 0 -101 150z" />
<glyph unicode="&#xfc;" d="M0 700q0 100 100 100t100 -100l1 -400q0 -100 100 -100h499v500q0 100 99 100q100 0 101 -100v-700h-699q-300 0 -300 300zM200 1000v2q0 98 100 98t100 -99q0 -101 -100 -101t-100 100zM601 1000v2q0 98 100 98t100 -99q0 -101 -100 -101t-100 100z" />
<glyph unicode="&#xfd;" d="M0 300v400q0 100 100 100t100 -100v-400q0 -100 98 -100h501l1 500q0 100 101 100q99 0 99 -100v-700q0 -300 -300 -300h-400q-100 0 -100 100t100 100h400q100 0 100 100h-501q-299 0 -299 300zM350 1050l200 200q100 0 100 -150l-199 -200q-101 0 -101 150z" />
<glyph unicode="&#xfe;" d="M1 -202v1204q0 98 100 98t100 -100v-200h499q300 0 300 -300v-200q0 -300 -299 -300h-501v-200q0 -100 -99 -100q-100 0 -100 98zM201 200h501q98 0 98 100v200q0 100 -100 100h-499v-400z" />
<glyph unicode="&#xff;" d="M0 300v400q0 100 100 100t100 -100v-400q0 -100 98 -100h501l1 500q0 100 101 100q99 0 99 -100v-700q0 -300 -300 -300h-400q-100 0 -100 100t100 100h400q100 0 100 100h-501q-299 0 -299 300zM200 1000v2q0 98 100 98t100 -99q0 -101 -100 -101t-100 100zM601 1000v2 q0 98 100 98t100 -99q0 -101 -100 -101t-100 100z" />
<glyph unicode="&#x152;" horiz-adv-x="2900" d="M1601 100v902q0 98 100 98h799q200 0 200 -200v-50q0 -100 -100 -100t-100 100q0 50 -50 50h-650v-250h600q99 0 99 -98v-4q0 -98 -99 -98h-600l1 -250h649q50 0 50 50q0 100 100 100t100 -100v-50q0 -200 -200 -200h-799q-100 0 -100 100zM0 200v700q0 200 200 200h1000 q200 0 200 -198v-702q0 -200 -200 -200h-999q-200 0 -201 200zM201 298q0 -98 99 -98h800q100 0 101 100l-1 500v2q0 98 -100 98h-800q-99 0 -99 -98v-504z" />
<glyph unicode="&#x153;" horiz-adv-x="2300" d="M1200 200v400q0 200 200 200l500 -1q200 0 201 -200v-99q0 -200 -200 -200h-501q0 -100 100 -100h501q100 0 100 -100q-1 -100 -100 -100h-601q-199 0 -200 200zM1400 500h426q75 0 75 50t-50 50h-351q-100 0 -100 -100zM0 200v398q0 200 200 200h600q200 0 200 -198 v-400q0 -200 -200 -200h-599q-200 0 -201 200zM200 298q0 -98 99 -98h400q100 0 101 100l-1 198v2q0 98 -100 98h-400q-99 0 -99 -98v-202z" />
<glyph unicode="&#x178;" horiz-adv-x="1600" d="M400 1322q0 100 100 100t100 -99q0 -101 -100 -101t-100 100zM801 1322v2q0 98 100 98t100 -99q0 -101 -100 -101t-100 100zM0 950q1 150 100 150l600 -400l600 400q100 0 100 -150l-601 -400l1 -450v-2q0 -98 -99 -98q-100 0 -102 100l1 450z" />
<glyph unicode="&#x2c6;" horiz-adv-x="700" d="M0 1300l199 200l100 -1l200 -200q0 -150 -100 -150l-150 150l-148 -149q-101 0 -101 150z" />
<glyph unicode="&#x2dc;" horiz-adv-x="900" d="M0 1300l200 200l101 -1q100 0 100 -50l37 -112l163 162q100 0 100 -150l-199 -200h-101q-100 0 -100 50l-38 113l-161 -163q-101 0 -102 151z" />
<glyph unicode="&#x2000;" horiz-adv-x="789" />
<glyph unicode="&#x2001;" horiz-adv-x="1578" />
<glyph unicode="&#x2002;" horiz-adv-x="789" />
<glyph unicode="&#x2003;" horiz-adv-x="1578" />
<glyph unicode="&#x2004;" horiz-adv-x="526" />
<glyph unicode="&#x2005;" horiz-adv-x="394" />
<glyph unicode="&#x2006;" horiz-adv-x="263" />
<glyph unicode="&#x2007;" horiz-adv-x="263" />
<glyph unicode="&#x2008;" horiz-adv-x="197" />
<glyph unicode="&#x2009;" horiz-adv-x="315" />
<glyph unicode="&#x200a;" horiz-adv-x="87" />
<glyph unicode="&#x2010;" d="M0 550q1 100 100 100l800 1q100 -1 100 -100v-2q0 -99 -100 -99h-802q-98 0 -98 100z" />
<glyph unicode="&#x2011;" d="M0 550q1 100 100 100l800 1q100 -1 100 -100v-2q0 -99 -100 -99h-802q-98 0 -98 100z" />
<glyph unicode="&#x2012;" d="M0 550q1 100 100 100l800 1q100 -1 100 -100v-2q0 -99 -100 -99h-802q-98 0 -98 100z" />
<glyph unicode="&#x2013;" d="M0 550q1 100 100 100l800 1q100 -1 100 -100v-2q0 -99 -100 -99h-802q-98 0 -98 100z" />
<glyph unicode="&#x2014;" horiz-adv-x="1600" d="M0 550q1 100 100 100l1200 1q100 -1 100 -100q0 -101 -100 -101h-1202q-98 0 -98 100z" />
<glyph unicode="&#x2018;" horiz-adv-x="400" d="M0 1050q0 150 100 150l200 -200q-1 -150 -101 -150z" />
<glyph unicode="&#x2019;" horiz-adv-x="400" d="M0 1000l200 200q100 0 100 -150l-199 -200q-100 0 -101 150z" />
<glyph unicode="&#x201a;" horiz-adv-x="400" d="M0 150l200 200q100 0 100 -150l-199 -200q-100 0 -101 150z" />
<glyph unicode="&#x201c;" horiz-adv-x="850" d="M0 1050q1 150 101 150l199 -199q0 -151 -100 -151zM350 1050q0 150 100 150l200 -200q-1 -150 -101 -150z" />
<glyph unicode="&#x201d;" horiz-adv-x="850" d="M0 1000l200 200q100 0 100 -150l-199 -200q-100 0 -101 150zM350 1001l199 199q100 0 101 -150l-200 -200q-100 0 -100 151z" />
<glyph unicode="&#x201e;" horiz-adv-x="850" d="M0 150l200 200q100 0 100 -150l-199 -200q-100 0 -101 150zM350 151l199 199q100 0 101 -150l-200 -200q-100 0 -100 151z" />
<glyph unicode="&#x2022;" horiz-adv-x="600" d="M0 551q0 199 200 199t200 -200t-200 -200t-200 201z" />
<glyph unicode="&#x2026;" horiz-adv-x="1000" d="M1 100v2q0 98 100 98t100 -99q0 -101 -100 -101t-100 100zM300 100v2q0 98 100 98t100 -99q0 -101 -100 -101t-100 100zM600 100v2q0 98 100 98t100 -99q0 -101 -100 -101t-100 100z" />
<glyph unicode="&#x202f;" horiz-adv-x="315" />
<glyph unicode="&#x2039;" horiz-adv-x="800" d="M0 550q0 100 100 150l400 251q100 0 100 -151l-400 -250l400 -250q0 -150 -100 -150l-400 250q-100 50 -100 150z" />
<glyph unicode="&#x203a;" horiz-adv-x="800" d="M0 300l400 250l-400 250q0 151 100 151l400 -251q100 -50 100 -150t-100 -150l-400 -250q-100 0 -100 150z" />
<glyph unicode="&#x205f;" horiz-adv-x="394" />
<glyph unicode="&#x20ac;" horiz-adv-x="1349" d="M0 400q0 100 100 100h100v100h-99q-100 0 -100 100t100 100h99v100q0 200 200 200h700q200 0 201 -200l-1 -50v-2q0 -97 -100 -98q-100 0 -100 100q0 51 -49 51l-551 -1q-100 0 -100 -100h400q100 0 100 -100t-100 -100h-400v-100h400q100 0 100 -100t-100 -100h-400 q0 -100 100 -100l551 1h2q47 0 48 49v2q0 99 99 99q100 -1 100 -101v-49q0 -200 -197 -200h-2l-701 -1q-199 0 -200 200v100h-100q-100 0 -100 100z" />
<glyph unicode="&#x2122;" horiz-adv-x="1497" />
<glyph unicode="&#xe000;" horiz-adv-x="800" d="M0 800h800v-800h-800v800z" />
<glyph unicode="&#xf001;" horiz-adv-x="1073" />
<glyph unicode="&#xfb01;" horiz-adv-x="1073" />
<glyph unicode="&#xf002;" horiz-adv-x="1081" />
<glyph unicode="&#xfb02;" horiz-adv-x="1081" />
<glyph unicode="&#xfb03;" horiz-adv-x="2000" d="M1600 702q0 98 100 98t100 -100l1 -599q0 -101 -100 -101t-100 100zM1600 1000q0 100 100 100t100 -100t-100 -100t-100 100zM800 700q0 100 100 100h100q0 300 300 300q100 0 100 -100q-1 -100 -100 -100q-100 0 -100 -100h100q99 0 99 -100v-2q0 -98 -99 -98h-100 l-1 -500v-2q0 -98 -98 -98q-100 0 -101 100v500h-100q-100 0 -100 100zM0 700q0 100 100 100h100q0 300 300 300q100 0 100 -100q-1 -100 -100 -100q-100 0 -100 -100h100q99 0 99 -100v-2q0 -98 -99 -98h-100l-1 -500v-2q0 -98 -98 -98q-100 0 -101 100v500h-100 q-100 0 -100 100z" />
<glyph unicode="&#xfb04;" horiz-adv-x="2000" d="M1601 100v902q0 98 100 98t100 -100v-899q0 -101 -100 -101t-100 100zM800 700q0 100 100 100h100q0 300 300 300q100 0 100 -100q-1 -100 -100 -100q-100 0 -100 -100h100q99 0 99 -100v-2q0 -98 -99 -98h-100l-1 -500v-2q0 -98 -98 -98q-100 0 -101 100v500h-100 q-100 0 -100 100zM0 700q0 100 100 100h100q0 300 300 300q100 0 100 -100q-1 -100 -100 -100q-100 0 -100 -100h100q99 0 99 -100v-2q0 -98 -99 -98h-100l-1 -500v-2q0 -98 -98 -98q-100 0 -101 100v500h-100q-100 0 -100 100z" />
</font>
</defs>
</svg>
